<?xml version="1.0" encoding="utf-8"?>
<!-- Generator: Adobe Illustrator 19.0.0, SVG Export Plug-In . SVG Version: 6.00 Build 0)  -->
<svg version="1.1" id="Layer_1" xmlns="http://www.w3.org/2000/svg" xmlns:xlink="http://www.w3.org/1999/xlink" x="0px" y="0px"
	 viewBox="0 0 500 500" enable-background="new 0 0 500 500" xml:space="preserve">
<g id="XMLID_128_">
	<path id="XMLID_2_" fill="#00D49C" d="M378.9,93.7c0,0-61.5,76.5-166.7,29.3C178.8,107.5,137,59.1,92.8,81.2S75.5,202.5,75.5,202.5
		l16.1,81.8c0,0,7.2,42.4,32.3,105.7c4.8,16.7,14.9,36.4,25.1,38.2s26.9-40,26.9-40s15-72.3,89.6-79.4
		c-31.1,7.2-53.2,14.9-68.1,66.9s-16.1,62.7-16.1,62.7s-10.8,50.8-24.5,50.2s-26.9-13.1-67.5-118.9c-11.3-34-20.3-61.5-46.6-154.7
		c-13.1-41.8-31.1-103.9-9-154.1C49.2,28,95.8-3,157.3,23.9c37.6,17.3,52,58.5,76.5,72.3S290.5,136.2,378.9,93.7z"/>
	<path id="XMLID_3_" fill="#007F7A" d="M462.6,146.5c0,0-53.4,27.9-70.1,75.7s-15.1,74.1-27.9,98.8c-5.4,11.2-8.4,21.6-23.9,4.8
		c-17.5-16.7-49.4-56.5-78.8-59.7c6.4,5.6,32.7,14.3,54.2,81.2c9.6,25.5,19.9,54.2,27.9,69.3c6.4,8,23.1,24.7,38.2-8
		c15.1-32.7,17.5-47,22.3-78c4.8-31.1,15.9-110.7,28.7-137S462.6,146.5,462.6,146.5z"/>
	<path id="XMLID_5_" fill="#007F7A" d="M287,63.3c0,0,41.8-26.9,96.8-10.8c20.9,8.4,47.9,29.2,20.9,62.7
		c-3.8,5.1-12.9,13.8-29.3,27.5c-14.9,12.4-45.4,30.5-63.3,65.1c7.2-6,28.4-32.8,88.4-57.3c20.6-9.4,82.4-41.8,78.8-76.5
		c-3.6-34.6-57.2-41.8-78.7-41.8S321.6,38.2,287,63.3z"/>
	<path id="XMLID_8_" opacity="0.3" fill="#00D49C" d="M121.1,330.8c0,0-39.4-139.5-39.4-194.8c-1.1-28.7,31.9-54.7,84.1-17.8
		c36.2,23.1,16,11.4,16,11.4s-78.8-46.8-70.3,51.1S121.1,330.8,121.1,330.8z"/>
	<path id="XMLID_7_" opacity="0.3" fill="#00D49C" d="M261.6,88.1c0,0,54.3,24.5,92.6,0C356.6,67.1,345.4,70.7,261.6,88.1z"/>
	<path id="XMLID_9_" opacity="0.7" fill="#00D49C" d="M276.6,358.8c0,0-24.6,92.8-53.2-14.6C229.2,353.7,251.8,410,276.6,358.8z"/>
</g>
</svg>
