<?xml version="1.0" encoding="utf-8"?>
<!-- Generator: Adobe Illustrator 19.0.0, SVG Export Plug-In . SVG Version: 6.00 Build 0)  -->
<svg version="1.1" id="Layer_1" xmlns="http://www.w3.org/2000/svg" xmlns:xlink="http://www.w3.org/1999/xlink" x="0px" y="0px"
	 viewBox="0 0 1024 500" enable-background="new 0 0 1024 500" xml:space="preserve">
<path id="XMLID_2_" fill="#00D49C" d="M367.2,106.3c0,0-57.8,71.8-156.5,27.5c-31.4-14.6-70.7-60-112.2-39.3S82.2,208.4,82.2,208.4
	l15.1,76.9c0,0,6.7,39.8,30.3,99.3c4.5,15.7,14,34.2,23.6,35.9s25.2-37.6,25.2-37.6s14.1-67.9,84.1-74.6c-29.2,6.7-49.9,14-64,62.8
	S181.5,430,181.5,430s-10.1,47.7-23,47.1s-25.2-12.3-63.4-111.6c-10.7-32-19.1-57.8-43.8-145.3C39,180.9,22.2,122.6,42.9,75.5
	c14.6-30.9,58.3-60,116.1-34.8c35.3,16.3,48.8,55,71.8,67.9S284.2,146.1,367.2,106.3z"/>
<path id="XMLID_3_" fill="#007F7A" d="M445.7,155.9c0,0-50.1,26.2-65.8,71.1c-15.7,44.9-14.2,69.6-26.2,92.8
	c-5.1,10.5-7.9,20.3-22.4,4.5c-16.5-15.7-46.4-53.1-74.1-56.1c6,5.2,30.7,13.5,50.9,76.3c9,23.9,18.7,50.9,26.2,65.1
	c6,7.5,21.7,23.2,35.9-7.5s16.5-44.1,20.9-73.3c4.5-29.2,15-104,26.9-128.7S445.7,155.9,445.7,155.9z"/>
<path id="XMLID_5_" fill="#007F7A" d="M280.8,77.7c0,0,39.3-25.2,90.9-10.1c19.6,7.9,45,27.4,19.6,58.9c-3.6,4.8-12.1,13-27.5,25.8
	c-14,11.7-42.6,28.6-59.5,61.1c6.7-5.6,26.6-30.8,83-53.9c19.4-8.8,77.4-39.3,74.1-71.8s-53.7-39.3-73.9-39.3S313.3,54.1,280.8,77.7
	z"/>
<g id="XMLID_10_">
	<path id="XMLID_11_" fill="#007F7A" d="M442.4,208.1H544v14.6h-76.3v33.4h67.7v14.4h-67.7v48h-25.3V208.1z"/>
	<path id="XMLID_13_" fill="#007F7A" d="M555.6,315.5c-4.5-3.2-6.7-8.3-6.7-15.4v-92h25.3v90.3c0,3,0.7,5,2.2,6.1
		c1.5,1.1,3.8,1.7,7.1,1.7c3.7,0,7.3-0.3,10.7-1v13c-5.1,1.3-11.1,2-17.9,2C566.9,320.2,560,318.7,555.6,315.5z"/>
	<path id="XMLID_15_" fill="#007F7A" d="M591.7,277.9c0-28.2,19.1-42.4,57.3-42.4c38.3,0,57.5,14.1,57.5,42.4
		c0,28.2-19.2,42.4-57.5,42.4C610.8,320.2,591.7,306.1,591.7,277.9z M673.7,298.3c4.9-4.1,7.3-10.9,7.3-20.4
		c0-9.4-2.4-16.1-7.3-20.2c-4.9-4.1-13.1-6.2-24.7-6.2c-11.4,0-19.6,2.1-24.5,6.2c-4.9,4.1-7.3,10.9-7.3,20.2
		c0,9.5,2.4,16.3,7.3,20.4s13,6.2,24.5,6.2C660.6,304.5,668.8,302.4,673.7,298.3z"/>
	<path id="XMLID_18_" fill="#007F7A" d="M724.2,237.2h23.2l1.4,9.4c5.3-2.5,11.5-4.8,18.8-6.9c7.3-2.1,14.5-3.5,21.6-4.3v14.2
		c-6.6,0.9-13.8,2.3-21.6,4.2c-7.7,1.9-13.8,3.9-18.1,5.9v58.6h-25.3V237.2z"/>
	<path id="XMLID_20_" fill="#007F7A" d="M806.2,309.6c-10.4-7.1-15.5-17.7-15.5-31.9c0-13.4,4.6-23.8,13.7-31.1
		c9.1-7.4,22.6-11.1,40.6-11.1c16.2,0,28.7,3.1,37.3,9.4c8.7,6.3,13,14.7,13,25.2v15.1h-80.5c1.2,7.8,5,13.2,11.4,16.2
		c6.3,3,16.3,4.5,29.9,4.5c5.6,0,11.2-0.4,17-1.2c5.8-0.8,10.9-1.8,15.4-3.1v13.7c-9.7,3.2-22.3,4.8-37.6,4.8
		C831.5,320.2,816.6,316.7,806.2,309.6z M873,273.1v-5.7c0-5.8-2.2-10.3-6.5-13.3c-4.3-3-11.3-4.5-20.9-4.5c-11.4,0-19.4,1.8-24,5.5
		c-4.6,3.7-6.8,9.7-6.8,18H873z"/>
	<path id="XMLID_23_" fill="#007F7A" d="M928,319.1c-7-0.7-12.7-1.7-17.2-3v-15.8c5.1,1.5,10.8,2.6,17,3.4
		c6.3,0.8,12.4,1.2,18.4,1.2c9,0,15.2-0.6,18.8-1.7c3.6-1.1,5.3-3.4,5.3-6.7c0-3-1.6-5.2-4.9-6.6c-3.2-1.4-9.4-3.2-18.3-5.2l-7-1.7
		c-11.1-2.7-19.2-5.8-24.4-9.2c-5.1-3.4-7.7-8.4-7.7-15c0-7.7,3.7-13.5,11.1-17.4c7.4-3.9,19-5.9,34.8-5.9c6,0,11.9,0.3,17.7,1
		s10.8,1.5,15,2.6v15.6c-4.2-1.3-8.9-2.2-14-2.9c-5.2-0.7-10.1-1-14.7-1c-8.5,0-14.7,0.5-18.6,1.6c-3.9,1.1-5.8,3.1-5.8,6.1
		c0,2.6,1.5,4.6,4.4,5.9c2.9,1.3,8.7,3,17.4,5.1l5.1,1.2c9,2.1,15.9,4.1,20.9,6.3c4.9,2.1,8.5,4.7,10.8,7.7c2.2,3,3.4,6.9,3.4,11.7
		c0,15.9-15.4,23.8-46.2,23.8C942.1,320.2,935,319.9,928,319.1z"/>
</g>
<g id="XMLID_1_">
	<path id="XMLID_116_" fill="#009966" d="M491.5,349.9l-1.1,1.4c-2.5-2.3-5.8-3.7-9.4-3.7c-7.5,0-13.6,5.9-13.6,13.2
		c0,7.3,6.1,13.3,13.6,13.3c3.5,0,6.9-1.4,9.4-3.6l1.1,1.2c-2.8,2.6-6.6,4.1-10.5,4.1c-8.5,0-15.4-6.7-15.4-15
		c0-8.3,6.9-14.9,15.4-14.9C485,345.9,488.7,347.4,491.5,349.9z"/>
	<path id="XMLID_121_" fill="#009966" d="M541.6,360.8c0,8.3-6.9,15-15.4,15s-15.4-6.7-15.4-15c0-8.3,6.9-14.9,15.4-14.9
		S541.6,352.5,541.6,360.8z M512.6,360.8c0,7.3,6.1,13.2,13.6,13.2s13.6-5.9,13.6-13.2c0-7.3-6.1-13.2-13.6-13.2
		S512.6,353.5,512.6,360.8z"/>
	<path id="XMLID_124_" fill="#009966" d="M586.3,375.7l-19.9-27.1v27.1h-1.8v-29.8h2.1l19.9,27.1v-27.1h1.7v29.8H586.3z"/>
	<path id="XMLID_126_" fill="#009966" d="M631,348.3l-0.8,1.6c-2.2-1.4-5.2-2.2-7.8-2.2c-4.7,0-7.8,2-7.8,5.1
		c0,9.1,17.5,4.4,17.4,15.4c0,4.6-4.1,7.6-10.4,7.6c-4,0-8-1.7-10.6-4.3l0.9-1.6c2.4,2.5,6.2,4,9.7,4c5.1,0,8.4-2.2,8.4-5.7
		c0.1-9.3-17.4-4.6-17.4-15.3c0-4.3,3.9-7.1,9.8-7.1C625.5,345.8,628.8,346.8,631,348.3z"/>
	<path id="XMLID_128_" fill="#009966" d="M679.5,363.5c0,7.8-4.4,12.2-12.1,12.2c-7.6,0-12.1-4.5-12.1-12.2v-17.6h1.8v17.6
		c0,6.7,3.8,10.5,10.3,10.5c6.5,0,10.3-3.8,10.3-10.5v-17.6h1.8V363.5z"/>
	<path id="XMLID_130_" fill="#009966" d="M720,374v1.7h-15v-29.8h1.8V374H720z"/>
	<path id="XMLID_132_" fill="#009966" d="M749.5,347.7v28.1h-1.8v-28.1h-10.1v-1.7h21.9v1.7H749.5z"/>
	<path id="XMLID_134_" fill="#009966" d="M806.8,360.8c0,8.3-6.9,15-15.4,15c-8.5,0-15.4-6.7-15.4-15c0-8.3,6.9-14.9,15.4-14.9
		C799.9,345.9,806.8,352.5,806.8,360.8z M777.7,360.8c0,7.3,6.1,13.2,13.6,13.2s13.6-5.9,13.6-13.2c0-7.3-6.1-13.2-13.6-13.2
		S777.7,353.5,777.7,360.8z"/>
	<path id="XMLID_137_" fill="#009966" d="M842.8,365.6c-0.8,0.1-1.6,0.2-2.5,0.2h-8.7v9.9h-1.8v-29.8h10.5c7.4,0,11.6,3.6,11.6,9.8
		c0,5.1-2.6,8.4-7.3,9.6l7.5,10.4h-2.1L842.8,365.6z M840.4,364c6.2,0,9.8-2.9,9.8-8.3c0-5.2-3.5-8.1-9.8-8.1h-8.8V364H840.4z"/>
	<path id="XMLID_157_" fill="#009966" d="M876.5,375.7v-29.8h1.8v29.8H876.5z"/>
	<path id="XMLID_159_" fill="#009966" d="M932.2,360.8c0,8.3-6.9,15-15.4,15s-15.4-6.7-15.4-15c0-8.3,6.9-14.9,15.4-14.9
		S932.2,352.5,932.2,360.8z M903.2,360.8c0,7.3,6.1,13.2,13.6,13.2s13.6-5.9,13.6-13.2c0-7.3-6.1-13.2-13.6-13.2
		S903.2,353.5,903.2,360.8z"/>
	<path id="XMLID_162_" fill="#009966" d="M971.7,348.3l-0.8,1.6c-2.2-1.4-5.2-2.2-7.8-2.2c-4.7,0-7.8,2-7.8,5.1
		c0,9.1,17.5,4.4,17.4,15.4c0,4.6-4.1,7.6-10.4,7.6c-4,0-8-1.7-10.6-4.3l0.9-1.6c2.4,2.5,6.2,4,9.7,4c5.1,0,8.4-2.2,8.4-5.7
		c0.1-9.3-17.4-4.6-17.4-15.3c0-4.3,3.9-7.1,9.8-7.1C966.2,345.8,969.5,346.8,971.7,348.3z"/>
</g>
<path id="XMLID_8_" opacity="0.3" fill="#00D49C" d="M125,329c0,0-37-131-37-183c-1-27,30-51.4,79-16.7c34,21.7,15,10.7,15,10.7
	s-74-44-66,48S125,329,125,329z"/>
<path id="XMLID_7_" opacity="0.3" fill="#00D49C" d="M257,101c0,0,51,23,87,0C346.2,81.3,335.7,84.7,257,101z"/>
<path id="XMLID_9_" opacity="0.7" fill="#00D49C" d="M271.1,355.2c0,0-23.2,87.2-49.9-13.7C226.6,350.4,247.7,403.3,271.1,355.2z"/>
</svg>
